<svg width="32" height="32" xmlns="http://www.w3.org/2000/svg">

 <g>
  <title>background</title>
  <rect fill="none" id="canvas_background" height="402" width="582" y="-1" x="-1"/>
 </g>
 <g>
  <title>Layer 1</title>
  <path fill="#0a84d0" id="svg_1" d="m25.871099,8l-2.335899,0l-2,-3l-11.0704,0l-2,3l-2.3359,0c-2.2768,0 -4.1289,1.8521 -4.1289,4.1289l0,10.7422c0,2.2768 1.8521,4.128901 4.1289,4.128901l19.742199,0c2.2764,0 4.128901,-1.8521 4.128901,-4.128901l0,-10.7422c0,-2.276799 -1.852501,-4.1289 -4.128901,-4.1289zm2.128901,14.871099c0,1.173801 -0.955099,2.128901 -2.128901,2.128901l-19.742199,0c-1.1738,0 -2.1289,-0.955099 -2.1289,-2.128901l0,-10.7422c0,-1.1738 0.9551,-2.1289 2.1289,-2.1289l2.8711,0c0.0337,0 0.062,-0.0156 0.0947,-0.019c0.0674,-0.0069 0.1304,-0.0196 0.1953,-0.0396c0.063,-0.0195 0.1211,-0.042 0.1777,-0.073199c0.0537,-0.0288 0.1021,-0.062 0.1504,-0.1011c0.0547,-0.0444 0.1025,-0.0913 0.1465,-0.146c0.0206,-0.024401 0.048901,-0.039101 0.0674,-0.066401l1.7032,-2.5547l8.929699,0l1.7031,2.5547c0.029301,0.0435 0.065401,0.0776 0.0996,0.1147c0.014601,0.0161 0.026402,0.0342 0.043001,0.0493c0.081999,0.0791 0.174799,0.1401 0.2754,0.186c0.0215,0.0103 0.0439,0.017099 0.066399,0.024899c0.111301,0.0421 0.226501,0.0704 0.3456,0.0704c0.001001,0 0.002001,0 0.002001,0l2.871099,0c1.173801,0 2.128901,0.9551 2.128901,2.1289l0,10.7422zm-12,-10.871099c-2.7568,0 -5,2.2432 -5,5s2.2432,5 5,5s5,-2.2432 5,-5s-2.2432,-5 -5,-5zm0,8c-1.6543,0 -3,-1.345699 -3,-3s1.3457,-3 3,-3s3,1.3457 3,3s-1.345699,3 -3,3z"/>
 </g>
</svg>