<svg width="512" height="512" xmlns="http://www.w3.org/2000/svg">

 <g>
  <title>background</title>
  <rect fill="none" id="canvas_background" height="402" width="582" y="-1" x="-1"/>
 </g>
 <g>
  <title>Layer 1</title>
  <path id="svg_2" fill="#0a84d0" d="m185.507996,383.263c10,0 18.12001,8.118988 18.12001,18.130005c0,10 -8.12001,18.119995 -18.12001,18.119995c-10.009995,0 -18.12999,-8.119995 -18.12999,-18.119995c0,-10.011017 8.120987,-18.130005 18.12999,-18.130005z"/>
  <path id="svg_3" fill="#0a84d0" d="m181.854004,395.763c9.485992,0 17.26799,7.311005 18.042999,16.605988c2.330994,-3.048981 3.731995,-6.845978 3.731995,-10.97699c0,-10.010986 -8.119995,-18.130005 -18.119995,-18.130005c-10.01001,0 -18.130005,8.119019 -18.130005,18.130005c0,0.511993 0.035004,1.015015 0.076996,1.516998c3.313004,-4.335999 8.522003,-7.145996 14.39801,-7.145996z"/>
  <path id="svg_4" fill="#0a84d0" d="m351.338989,398.852997c6.970001,6.959991 7,18.229004 0.079987,25.149017c-6.269989,6.270996 -12.559998,6.260986 -22.009979,3.089996c3.169983,9.440002 3.188995,15.72998 -3.080017,22c-6.940002,6.940002 -18.209991,6.899994 -25.169983,-0.059998c-12.610016,-12.610016 -7.240021,-32.350006 -7.311005,-57.51001c25.151001,0.070007 44.881012,-5.290009 57.490997,7.330994z"/>
  <path id="svg_5" fill="#0a84d0" d="m300.598999,402.459991c23.973999,0.06601 43.016998,-4.787994 55.667999,5.687012c-0.64801,-3.402008 -2.287994,-6.657013 -4.928009,-9.294006c-12.608978,-12.619995 -32.339996,-7.261017 -57.48999,-7.330017c0.070007,25.160004 -5.299988,44.899017 7.311005,57.51001c0.110992,0.110992 0.233002,0.205994 0.347992,0.313995c-3.88501,-12.069977 -0.856995,-27.940979 -0.908997,-46.886993z"/>
  <path id="svg_6" fill="#0a84d0" d="m443.098999,179.011993c6.940002,6.940002 6.899994,18.209991 -0.059998,25.169998c-12.619995,12.619995 -32.360016,7.240005 -57.51001,7.309998c0.069,-25.149994 -5.289978,-44.880005 7.319,-57.490005c6.971008,-6.970001 18.240021,-7 25.160004,-0.079987c6.270996,6.279999 6.25,12.569992 3.080017,22.009995c9.450989,-3.169998 15.740997,-3.189987 22.010986,3.080002z"/>
  <path id="svg_10" fill="#0a84d0" d="m400.348999,162.751999c5.949005,-5.949005 15.020996,-6.824005 21.856995,-2.656006c-0.820007,-2.127991 -2.178986,-4.151993 -4.196991,-6.173996c-6.920013,-6.919998 -18.188995,-6.889999 -25.160004,0.080002c-12.609009,12.610001 -7.25,32.339996 -7.319,57.490005c2.5,-0.007004 4.944,0.041 7.335999,0.118988c-0.779999,-21.051987 -3.645996,-37.729996 7.483002,-48.858994z"/>
  <path id="svg_11" fill="#0a84d0" d="m321.419006,75.181999c10.01001,0 18.130005,8.110001 18.130005,18.120003c0,10.009995 -8.119995,18.129997 -18.130005,18.129997c-10,0 -18.119995,-8.120003 -18.119995,-18.129997c0,-10.010002 8.119995,-18.120003 18.119995,-18.120003z"/>
  <path id="svg_12" fill="#0a84d0" d="m324.164001,85.304001c6.480011,0 12.152008,3.409996 15.358002,8.523003c0.005005,-0.176003 0.026001,-0.348007 0.026001,-0.525002c0,-10.010002 -8.119995,-18.120003 -18.130005,-18.120003c-10,0 -18.119995,8.110001 -18.119995,18.120003c0,3.529999 1.024994,6.813995 2.770996,9.599998c0.281006,-9.765999 8.270996,-17.598 18.095001,-17.598z"/>
  <path id="svg_13" fill="#0a84d0" d="m243.479004,229.222c13.040009,0 23.579987,10.529999 23.579987,23.570007s-10.539978,23.580002 -23.579987,23.580002c-13.029999,0 -23.570007,-10.540009 -23.570007,-23.580002s10.540009,-23.570007 23.570007,-23.570007z"/>
  <path id="svg_14" fill="#0a84d0" d="m238.473999,241.722c13.040009,0 23.579987,10.529999 23.579987,23.570999c0,0.729004 -0.037994,1.447998 -0.102997,2.158997c3.195007,-4.022003 5.107025,-9.113007 5.107025,-14.659988c0,-13.040009 -10.540009,-23.570007 -23.580017,-23.570007c-12.302994,0 -22.37999,9.388992 -23.468002,21.414001c4.31601,-5.432999 10.975998,-8.914001 18.464005,-8.914001z"/>
  <path id="svg_15" fill="#0a84d0" d="m85.829002,183.921997c10.009995,0 18.119995,8.110001 18.119995,18.12001c0,10.009995 -8.110001,18.119995 -18.119995,18.119995c-10.010002,0 -18.120003,-8.110001 -18.120003,-18.119995c-0.000999,-10.01001 8.109001,-18.12001 18.120003,-18.12001z"/>
  <path id="svg_16" fill="#0a84d0" d="m83.162003,192.981995c10.009995,0 18.119995,8.110001 18.119995,18.12001c0,0.136002 -0.016998,0.266998 -0.019997,0.401001c1.693001,-2.756012 2.686996,-5.988007 2.686996,-9.460999c0,-10.010025 -8.110001,-18.12001 -18.119995,-18.12001c-9.875,0 -17.884003,7.895996 -18.100006,17.717987c3.187004,-5.187988 8.896004,-8.65799 15.433006,-8.65799z"/>
  <path id="svg_17" fill="#0a84d0" d="m119.148003,62.972c12.609993,12.610001 7.239998,32.349998 7.309998,57.510002c-25.160004,-0.07 -44.879997,5.290001 -57.5,-7.330002c-6.959999,-6.959999 -6.990002,-18.230003 -0.07,-25.150002c6.269997,-6.279999 12.559998,-6.260002 22,-3.089996c-3.169998,-9.440002 -3.190002,-15.730003 3.089996,-22.000004c6.940002,-6.939999 18.201004,-6.91 25.170006,0.060001z"/>
  <path id="svg_21" fill="#0a84d0" d="m119.148003,62.972c-6.970001,-6.970001 -18.230003,-7 -25.170006,-0.060001c-2.670998,2.667004 -4.192993,5.339001 -4.826996,8.254002c6.965996,-5.289001 16.944,-4.747002 23.330002,1.639c10.932999,10.932999 8.351997,27.230003 7.516998,47.768997c2.112,-0.060997 4.264,-0.098 6.459999,-0.091995c-0.069,-25.160004 5.299995,-44.900002 -7.309998,-57.510002z"/>
  <path id="svg_22" fill="#0a84d0" d="m243.479004,171.772003c-2.761002,0 -5,-2.238998 -5,-5l0,-53.510002c0,-2.761002 2.238998,-5 5,-5s5,2.238998 5,5l0,53.510002c0,2.761002 -2.238998,5 -5,5z"/>
  <path id="svg_23" fill="#0a84d0" d="m243.479004,208.852005c-2.761002,0 -5,-2.238998 -5,-5l0,-10.869995c0,-2.761002 2.238998,-5 5,-5s5,2.238998 5,5l0,10.869995c0,2.761002 -2.238998,5 -5,5z"/>
  <path id="svg_24" fill="#0a84d0" d="m304.109009,197.171997c-1.272003,0 -2.545013,-0.481995 -3.519989,-1.44899c-1.962006,-1.944 -1.976013,-5.110001 -0.032013,-7.071014l37.929993,-38.269989c1.944,-1.960999 5.111023,-1.975998 7.071014,-0.031998c1.962006,1.944 1.975983,5.110001 0.031982,7.070999l-37.929993,38.269989c-0.976013,0.987 -2.264008,1.481003 -3.550995,1.481003z"/>
  <path id="svg_25" fill="#0a84d0" d="m278.009003,223.261993c-1.281006,0 -2.562012,-0.488998 -3.537994,-1.46701c-1.951019,-1.953995 -1.949005,-5.119995 0.005005,-7.070999l7.619995,-7.610001c1.953979,-1.950989 5.121002,-1.94899 7.070984,0.005005c1.951019,1.953995 1.949005,5.119995 -0.005005,7.070999l-7.619995,7.610001c-0.975983,0.974014 -2.255005,1.462006 -3.53299,1.462006z"/>
  <path id="svg_26" fill="#0a84d0" d="m383.009003,257.792999l-53.839996,0c-2.761993,0 -5,-2.240005 -5,-5.000992s2.238007,-5 5,-5l53.839996,0c2.761993,0 5,2.238998 5,5s-2.238007,5.000992 -5,5.000992z"/>
  <path id="svg_27" fill="#0a84d0" d="m303.299011,257.792999l-10.869995,0c-2.761993,0 -5,-2.240005 -5,-5.000992s2.238007,-5 5,-5l10.869995,0c2.761993,0 5,2.238998 5,5s-2.238007,5.000992 -5,5.000992z"/>
  <path id="svg_28" fill="#0a84d0" d="m342.039001,356.352997c-1.278992,0 -2.559998,-0.488007 -3.535004,-1.464996l-37.929993,-37.931c-1.953003,-1.951996 -1.953003,-5.118011 0,-7.070007c1.950989,-1.953003 5.118988,-1.953003 7.070007,0l37.929993,37.931c1.953003,1.951996 1.953003,5.118011 0,7.070007c-0.975006,0.976013 -2.256012,1.464996 -3.535004,1.464996z"/>
  <path id="svg_29" fill="#0a84d0" d="m285.628998,299.941986c-1.278992,0 -2.559998,-0.488007 -3.535004,-1.464996l-7.619995,-7.619995c-1.953003,-1.951996 -1.953003,-5.118011 0,-7.070007c1.950989,-1.953003 5.118988,-1.953003 7.070007,0l7.619995,7.619995c1.953003,1.951996 1.953003,5.118011 0,7.070007c-0.976013,0.97702 -2.256012,1.464996 -3.535004,1.464996z"/>
  <path id="svg_30" fill="#0a84d0" d="m243.479004,397.321991c-2.761002,0 -5,-2.238007 -5,-5l0,-53.839996c0,-2.761993 2.238998,-5 5,-5s5,2.238007 5,5l0,53.839996c0,2.762024 -2.238998,5 -5,5z"/>
  <path id="svg_31" fill="#0a84d0" d="m243.479004,317.612c-2.761002,0 -5,-2.238007 -5,-5l0,-10.869995c0,-2.761993 2.238998,-5 5,-5s5,2.238007 5,5l0,10.869995c0,2.761993 -2.238998,5 -5,5z"/>
  <path id="svg_32" fill="#0a84d0" d="m144.587997,356.352997c-1.287003,0 -2.57399,-0.493988 -3.550995,-1.480011c-1.944,-1.960999 -1.930008,-5.126984 0.031998,-7.069977l38.270004,-37.931c1.959991,-1.944 5.126999,-1.931 7.070999,0.031006c1.944,1.960999 1.929993,5.126984 -0.031998,7.069977l-38.270004,37.931c-0.975006,0.966003 -2.247009,1.449005 -3.520004,1.449005z"/>
  <path id="svg_33" fill="#0a84d0" d="m201.337997,299.941986c-1.278992,0 -2.556992,-0.487 -3.533005,-1.462006c-1.953995,-1.950989 -1.955994,-5.117004 -0.003998,-7.070984l7.610001,-7.619995c1.951004,-1.953003 5.117004,-1.956024 7.070999,-0.005005c1.95401,1.950989 1.956009,5.117004 0.003998,7.070984l-7.609985,7.619995c-0.976013,0.978027 -2.257004,1.46701 -3.53801,1.46701z"/>
  <path id="svg_34" fill="#0a84d0" d="m157.457993,257.792999l-53.510002,0c-2.761002,0 -5,-2.240005 -5,-5.000992s2.238998,-5 5,-5l53.510002,0c2.761002,0 5,2.238998 5,5s-2.237991,5.000992 -5,5.000992z"/>
  <path id="svg_35" fill="#0a84d0" d="m194.539001,257.792999l-10.869995,0c-2.761002,0 -5,-2.240005 -5,-5.000992s2.238998,-5 5,-5l10.869995,0c2.761002,0 5,2.238998 5,5s-2.238998,5.000992 -5,5.000992z"/>
  <path id="svg_36" fill="#0a84d0" d="m182.858002,197.171997c-1.279999,0 -2.559006,-0.487991 -3.535995,-1.464005l-38.270004,-38.269989c-1.953003,-1.953003 -1.953003,-5.119003 0,-7.070999c1.953003,-1.952011 5.117996,-1.952011 7.070999,0l38.270004,38.269989c1.952988,1.953003 1.952988,5.119003 0,7.070999c-0.975998,0.976013 -2.255005,1.464005 -3.535004,1.464005z"/>
  <path id="svg_37" fill="#0a84d0" d="m208.949005,223.261993c-1.279999,0 -2.55899,-0.488007 -3.535995,-1.464005l-7.610016,-7.610001c-1.952988,-1.953003 -1.952988,-5.117996 0,-7.070999c1.952011,-1.951996 5.118011,-1.951996 7.071014,0l7.610001,7.610001c1.953003,1.953003 1.953003,5.117996 0,7.070999c-0.976013,0.975006 -2.255005,1.464005 -3.535004,1.464005z"/>
 </g>
</svg>