<svg width="32" height="32" xmlns="http://www.w3.org/2000/svg">
 <title/>
 <desc/>

 <g>
  <title>background</title>
  <rect fill="none" id="canvas_background" height="402" width="582" y="-1" x="-1"/>
 </g>
 <g>
  <title>Layer 1</title>
  <path fill="#0a84d0" id="one-finger-click" d="m13.12442,0l0,4l1,0l0,-4l-1,0l0,0zm6.40251,2.57686l-3.108589,2.51729l0.62932,0.77714l3.108589,-2.51728l-0.62932,-0.77715l0,0zm2.00493,6.73556l-3.89748,-0.8998l-0.224951,0.97437l3.89748,0.8998l0.224951,-0.97437l0,0zm-15.589921,0.97437l3.89748,-0.8998l-0.22496,-0.97437l-3.89748,0.8998l0.22496,0.97437l0,0zm1.15065,-6.93278l3.108591,2.51728l0.629319,-0.77714l-3.10859,-2.51729l-0.62932,0.77715l0,0zm12.53057,27.64599c4.14283,0 7.501261,-3.58522 7.501261,-7.5c0,0 0,2.31324 0,0l0,-3.750839l0,-2.24749c0,-0.829351 -0.6658,-1.501671 -1.5,-1.501671c-0.82843,0 -1.5,0.67119 -1.5,1.501671l0,0.498329l-1,0l0,-2.49356c0,-0.83198 -0.6658,-1.50644 -1.5,-1.50644c-0.82843,0 -1.5,0.67154 -1.5,1.50644l0,1.49356l-1,0l0,-2.49356c0,-0.83198 -0.6658,-1.50644 -1.5,-1.50644c-0.82843,0 -1.5,0.67154 -1.5,1.50644l0,3.49356l-1,0l0,-10.49476c0,-0.83132 -0.6658,-1.50524 -1.5,-1.50524c-0.82843,0 -1.5,0.66713 -1.5,1.50524l0,11.29475c-2.0584,-2.20042 -4.76837,-4.62087 -5.87897,-3.50427c-1.08717,1.09304 1.71433,4.105 5.62635,10.687369c1.76262,2.965801 3.992909,5.016451 7.751359,5.016911l0,0zm8.501261,-7.5c0,4.69442 -3.80558,8.5 -8.5,8.5c-3.112909,0 -6.39819,-1.452511 -8.659181,-5.571779c-3.26349,-5.945702 -7.43697,-9.845011 -5.449709,-11.832271c1.42165,-1.42165 3.65373,-0.05778 5.60889,1.770841l0,0l0,-8.858381c0,-1.39299 1.119289,-2.50841 2.5,-2.50841c1.39034,0 2.5,1.12305 2.5,2.50841l0,4.98996c0.41783,-0.31306 0.937201,-0.49837 1.5,-0.49837c1.08252,0 1.994881,0.67747 2.345819,1.62812c0.440771,-0.39013 1.01989,-0.62812 1.654181,-0.62812c1.390339,0 2.5,1.11823 2.5,2.49763l0,0.01346c0.41783,-0.312571 0.937201,-0.496901 1.5,-0.496901c1.390339,0 2.5,1.119349 2.5,2.500131l0,5.98568l0,0z"/>
 </g>
</svg>