<svg width="921" height="614" viewBox="0 0 921 614" xmlns="http://www.w3.org/2000/svg" xmlns:xlink="http://www.w3.org/1999/xlink"><defs><path id="a" d="M374.22 146.33c-16.615 21.52-24.222 42.239-22.72 62.257 1.4 14.113 3.603 30.429 6.605 48.946l-2.202 2.201c-1.501.802-3.203 3.003-5.004 6.706-1.903 3.704-2.803 8.51-2.803 14.414.8 10.41 2.402 18.317 5.005 23.922 2.502 5.505 5.104 8.708 7.707 9.408 2.502.7 5.104 2.203 7.706 4.405 2.603 2.201 4.204 5.605 5.005 10.009 3.704 17.116 9.609 30.628 17.716 40.637 8.109 10.01 12.212 19.118 12.212 27.225 0 22.22-6.306 39.837-18.817 52.85-12.511 12.912-36.134 25.723-70.866 38.334-75.37 26.725-113.004 49.346-113.004 67.863v58.955h520.48v-58.955c0-18.517-37.634-41.138-113.005-67.863-33.931-12.611-57.353-25.322-70.064-38.434-13.012-13.012-19.418-30.629-19.418-52.85 0-8.206 4.205-17.115 12.712-26.724 8.407-9.61 14.113-23.322 17.115-41.138.7-4.404 2.404-7.808 5.005-10.009 2.502-2.203 5.105-3.704 7.708-4.404 2.502-.701 5.103-3.804 7.707-9.409 2.601-5.605 4.304-13.513 5.005-23.923 0-12.51-3.404-20.318-10.01-23.32l6.606-48.945c2.201-20.02-5.205-40.738-22.12-62.258C531.465 124.71 502.338 114 461 114c-41.338 0-70.365 10.71-86.78 32.33z"/></defs><g fill="none" fill-rule="evenodd"><path fill="#cde2ef" d="M-12-11h958v638H-12z"/><use fill-opacity=".3" fill="#0974B6" xlink:href="#a"/></g></svg>