<?xml version="1.0" ?><svg style="enable-background:new 0 0 512 512;" version="1.1" viewBox="0 0 512 512" xml:space="preserve" xmlns="http://www.w3.org/2000/svg" xmlns:xlink="http://www.w3.org/1999/xlink"><style type="text/css">
	.st0{display:none;fill:#FEFEFE;}
	.st1{fill:#3B5997;}
</style><g id="Layer_1"/><g id="Layer_2"><g><path class="st0" d="M0.4,512.4c0-170.7,0-341.3,0-512c170.7,0,341.3,0,512,0c0,170.7,0,341.3,0,512    C341.8,512.4,171.1,512.4,0.4,512.4z"/><path class="st1" d="M438.3,256.7c0,53.8-0.1,107.7,0.1,161.5c0,9-7,18.3-17,19.9c-0.6,0.1-1.1,0.1-1.7,0.1c-30.6,0-61.2,0-91.7,0    c-0.3,0-0.6,0-0.9,0c-1,0.1-1.5-0.2-1.4-1.3c0-0.4,0-0.9,0-1.3c0-45.2,0-90.3,0-135.5c0-3-0.4-2.7,2.7-2.7c13.9,0,27.9,0,41.8,0    c0.6,0,1.1,0,1.7,0c0.7,0,1-0.3,1.1-1c0.2-1.8,0.5-3.5,0.7-5.3c1.4-10.9,2.8-21.8,4.2-32.7c0.6-4.5,1.2-9,1.7-13.5    c0.3-2.1,0.2-2.1-1.9-2.1c-16.5,0-33,0-49.5,0c-3,0-2.6,0.3-2.6-2.6c0-10.9,0-21.8,0-32.6c0-3.7,0.3-7.4,1.1-11    c1.7-7.2,6.1-11.9,13.2-14c3.7-1.1,7.5-1.6,11.4-1.6c9.4,0,18.8,0,28.2,0c2.6,0,2.3,0.2,2.3-2.3c0-14.8,0-29.6,0-44.4    c0-0.4,0-0.7,0-1.1c0.1-0.9-0.4-1.3-1.2-1.4c-1.4-0.2-2.8-0.3-4.2-0.4c-5.5-0.4-11.1-0.7-16.6-1c-5-0.2-9.9-0.4-14.9-0.6    c-13.6-0.4-26.8,1.2-39.3,7c-14.4,6.7-24.4,17.6-30.4,32.2c-3.4,8.2-5,16.7-5.7,25.5c-0.5,6.4-0.2,12.8-0.3,19.2    c-0.1,8.8,0,17.6,0,26.5c0,0.5,0,1,0,1.5c0,0.7-0.2,1.1-1,1c-0.6,0-1.1,0-1.7,0c-13.9,0-27.9,0-41.8,0c-0.6,0-1.1,0-1.7,0    c-0.8,0-1.2,0.3-1.1,1.1c0,0.4,0,0.9,0,1.3c0,16.6,0,33.1,0,49.7c0,0.2,0,0.4,0,0.6c0,1.8,0,1.8,1.9,1.8c14.3,0,28.6,0,42.9,0    c2.9,0,2.6-0.4,2.6,2.6c0,45.2,0,90.4,0,135.7c0,2.7,0.3,2.4-2.4,2.4c-57.3,0-114.6,0-171.9,0c-7.2,0-12.6-3.3-16.6-9.1    c-2.2-3.3-3.2-7-3.2-11.1c0-107.7,0-215.3,0-323c0-9.1,6.6-18,16.9-19.8c1-0.2,2-0.1,3-0.1c107.9,0,215.7,0,323.6,0    c7.5,0,13,3.5,17,9.7c1.9,3,2.7,6.3,2.7,9.9C438.2,148.6,438.3,202.7,438.3,256.7z"/></g></g></svg>