<svg width="49.99999999999999" height="49.99999999999999" xmlns="http://www.w3.org/2000/svg">

 <g>
  <title>background</title>
  <rect fill="none" id="canvas_background" height="402" width="582" y="-1" x="-1"/>
 </g>
 <g>
  <title>Layer 1</title>
  <path fill="#0a84d0" id="svg_1" d="m8,20c0,12.980999 15.643,28.085999 16.309,28.723l0.691,0.66l0.691,-0.660999c0.666,-0.636002 16.309,-15.741001 16.309,-28.722c0,-8.765 -4.452,-19 -17,-19s-17,10.235 -17,19zm32,0c0,10.642 -11.966,23.5 -15,26.588001c-3.034,-3.088001 -15,-15.946001 -15,-26.588001c0,-12.534 7.749001,-17 15,-17s15,4.466 15,17z"/>
  <path fill="#0a84d0" id="svg_2" d="m15,17c0,5.514 4.486,10 10,10s10,-4.486 10,-10s-4.486,-10 -10,-10s-10,4.486 -10,10zm18,0c0,4.410999 -3.589001,8 -8,8s-8,-3.589001 -8,-8s3.589001,-8 8,-8s8,3.589 8,8z"/>
 </g>
</svg>