<svg width="25.999999999999996" height="25.999999999999996" xmlns="http://www.w3.org/2000/svg">

 <g>
  <title>background</title>
  <rect fill="none" id="canvas_background" height="402" width="582" y="-1" x="-1"/>
 </g>
 <g>
  <title>Layer 1</title>
  <path id="svg_1" fill="#0a84d0" d="m23.22949,4l-20.45898,0c-0.97656,0 -1.77051,0.84375 -1.77051,1.88086l0,14.238281c0,1.037109 0.79395,1.880859 1.77051,1.880859l20.45898,0c0.976561,0 1.77051,-0.84375 1.77051,-1.880859l0,-14.238281c0,-1.03711 -0.793949,-1.88086 -1.77051,-1.88086zm-7.5628,9.00031l7.83331,-5.65333l0,11.3061l-7.83331,-5.65277zm7.5628,-7.50031c0.05353,0 0.10779,0.03235 0.154909,0.08069l-10.384399,7.494441l-10.3844,-7.494441c0.04712,-0.04834 0.10138,-0.08069 0.15491,-0.08069l20.45898,0zm-20.72949,13.153021l0,-11.306041l7.83282,5.65296l-7.83282,5.653081zm0.27051,1.846979c-0.05353,0 -0.10779,-0.032471 -0.15491,-0.08075l8.99872,-6.494451l0.9472,0.6836c0.02246,0.01629 0.04847,0.022949 0.07215,0.03638c0.02313,0.01312 0.04474,0.02423 0.06897,0.03479c0.095941,0.04193 0.195491,0.07043 0.29638,0.07043c0.00037,0 0.00061,-0.00024 0.00098,-0.00024s0.00061,0.00024 0.00098,0.00024c0.100889,0 0.200439,-0.0285 0.29638,-0.07043c0.02423,-0.01056 0.045839,-0.02167 0.06897,-0.03479c0.02368,-0.013431 0.04969,-0.02009 0.07215,-0.03638l0.94671,-0.68329l8.999209,6.4942c-0.047119,0.048281 -0.101379,0.08069 -0.154909,0.08069l-20.45898,0z"/>
 </g>
</svg>