<svg width="8.4666665" height="8.4666669" xmlns="http://www.w3.org/2000/svg">

 <g>
  <title>background</title>
  <rect fill="none" id="canvas_background" height="402" width="582" y="-1" x="-1"/>
 </g>
 <g>
  <title>Layer 1</title>
  <path clip-rule="nonzero" fill="#0a84d0" fill-rule="nonzero" stroke-width="2" stroke-linecap="round" stroke-linejoin="round" stroke-miterlimit="4" stroke-dashoffset="0" id="path935" d="m4.232298,0.265632c-1.165868,0 -2.115113,0.949264 -2.115116,2.115116c0.000003,0.73471 0.377619,1.383798 0.948264,1.763716c-1.620658,0.499517 -2.801898,2.010407 -2.801898,3.79305a0.26461,0.26461 0 0 0 0.265618,0.265617l7.408333,0a0.26461,0.26461 0 0 0 0.263548,-0.265617c0.000003,-1.782449 -1.180457,-3.293371 -2.80086,-3.79305c0.571201,-0.379919 0.949293,-1.029007 0.949296,-1.763716c-0.000003,-1.165853 -0.951318,-2.115116 -2.117186,-2.115116zm0,0.5271c0.879888,0 1.588016,0.708129 1.588019,1.588017c-0.000003,0.879888 -0.708131,1.588017 -1.588019,1.588017c-0.879885,0 -1.585947,-0.708129 -1.585949,-1.588017c0.000003,-0.879888 0.706064,-1.588017 1.585949,-1.588017zm0,3.7052c1.809199,0 3.247927,1.403758 3.388942,3.176033l-6.775296,0c0.141015,-1.772275 1.577155,-3.176033 3.386354,-3.176033z"/>
 </g>
</svg>