<svg width="24" height="24" xmlns="http://www.w3.org/2000/svg">

 <g>
  <title>background</title>
  <rect fill="none" id="canvas_background" height="402" width="582" y="-1" x="-1"/>
 </g>
 <g>
  <title>Layer 1</title>
  <path fill="#0a84d0" id="svg_1" d="m23,4l-4,0l0,-3c0,-0.6 -0.4,-1 -1,-1l-12,0c-0.6,0 -1,0.4 -1,1l0,3l-4,0c-0.6,0 -1,0.4 -1,1l0,18c0,0.6 0.4,1 1,1l22,0c0.6,0 1,-0.4 1,-1l0,-18c0,-0.6 -0.4,-1 -1,-1zm-16,-2l10,0l0,2l-10,0l0,-2zm-5,20l0,-16l3,0l0,16l-3,0zm4,0l0,-16l12,0l0,16l-12,0zm16,0l-3,0l0,-16l3,0l0,16z"/>
 </g>
</svg>