<svg width="24" height="24" xmlns="http://www.w3.org/2000/svg">
 <title/>

 <g>
  <title>background</title>
  <rect fill="none" id="canvas_background" height="402" width="582" y="-1" x="-1"/>
 </g>
 <g>
  <title>Layer 1</title>
  <path id="svg_1" fill="#7f7f7f" d="m23.87,4.43a0.5,0.5 0 0 0 -0.6,-0.1a4.76,4.76 0 0 1 -0.75,0.27a4.85,4.85 0 0 0 0.85,-1.6a0.5,0.5 0 0 0 -0.77,-0.53a10.59,10.59 0 0 1 -2.53,1a5.05,5.05 0 0 0 -3.57,-1.47a5.71,5.71 0 0 0 -3,0.93c-1.9,1.07 -2.23,3.54 -2.09,5.07a13,13 0 0 1 -9,-4.76a0.53,0.53 0 0 0 -0.41,-0.24a0.5,0.5 0 0 0 -0.4,0.25a5.35,5.35 0 0 0 0.22,5.7c-0.15,-0.1 -0.31,-0.22 -0.47,-0.35a0.5,0.5 0 0 0 -0.85,0.4a5.73,5.73 0 0 0 2.5,4.64l-0.39,-0.11a0.5,0.5 0 0 0 -0.61,0.67a6.48,6.48 0 0 0 4.19,3.62a9.22,9.22 0 0 1 -5.63,1.18a0.5,0.5 0 0 0 -0.31,0.93a15.2,15.2 0 0 0 7.75,2.07l0,0a13.35,13.35 0 0 0 10,-4.63a13.63,13.63 0 0 0 3.65,-9.92a9.81,9.81 0 0 0 2.27,-2.45a0.5,0.5 0 0 0 -0.05,-0.57zm-15.87,17.07z"/>
 </g>
</svg>